<?xml version="1.0" encoding="UTF-8"?>
<svg xmlns="http://www.w3.org/2000/svg" width="960" height="640" viewBox="0 0 960 640">
<rect x="0" y="0" width="100%" height="100%" fill="#ffffff"/>
<title>Warm throughput metrics across archive sizes</title>
<desc>Warm Engram benchmarks for varying archive sizes, tracking docs per second, queries per second, JSON batch latency, and JSON bandwidth.</desc>
<line x1="204.00" y1="72" x2="204.00" y2="500" stroke="#eef2f7" stroke-width="1"/>
<line x1="271.56" y1="72" x2="271.56" y2="500" stroke="#eef2f7" stroke-width="1"/>
<line x1="339.11" y1="72" x2="339.11" y2="500" stroke="#eef2f7" stroke-width="1"/>
<line x1="406.67" y1="72" x2="406.67" y2="500" stroke="#eef2f7" stroke-width="1"/>
<line x1="474.22" y1="72" x2="474.22" y2="500" stroke="#eef2f7" stroke-width="1"/>
<line x1="541.78" y1="72" x2="541.78" y2="500" stroke="#eef2f7" stroke-width="1"/>
<line x1="609.33" y1="72" x2="609.33" y2="500" stroke="#eef2f7" stroke-width="1"/>
<line x1="676.89" y1="72" x2="676.89" y2="500" stroke="#eef2f7" stroke-width="1"/>
<line x1="744.44" y1="72" x2="744.44" y2="500" stroke="#eef2f7" stroke-width="1"/>
<line x1="812.00" y1="72" x2="812.00" y2="500" stroke="#eef2f7" stroke-width="1"/>
<line x1="229.06" y1="72" x2="229.06" y2="500" stroke="#d7dee9" stroke-width="1" stroke-dasharray="4 4"/>
<line x1="745.26" y1="72" x2="745.26" y2="500" stroke="#d7dee9" stroke-width="1" stroke-dasharray="4 4"/>
<rect x="204.00" y="72.00" width="608.00" height="83.00" fill="#f8fafc" />
<text x="508.00" y="60.00" text-anchor="middle" font-size="12" font-weight="600" font-family="Segoe UI, Arial, sans-serif" fill="#1f2937">Docs per second (warm)</text>
<line x1="204.00" y1="72.00" x2="204.00" y2="155.00" stroke="#cbd5e1" stroke-width="1.5"/>
<line x1="204.00" y1="155.00" x2="812.00" y2="155.00" stroke="#e2e8f0" stroke-width="1"/>
<text x="186.00" y="159.00" text-anchor="end" font-size="11" font-family="Segoe UI, Arial, sans-serif" fill="#475569">0</text>
<line x1="204.00" y1="144.63" x2="812.00" y2="144.63" stroke="#e2e8f0" stroke-width="1"/>
<text x="186.00" y="148.63" text-anchor="end" font-size="11" font-family="Segoe UI, Arial, sans-serif" fill="#475569">10,000</text>
<line x1="204.00" y1="134.25" x2="812.00" y2="134.25" stroke="#e2e8f0" stroke-width="1"/>
<text x="186.00" y="138.25" text-anchor="end" font-size="11" font-family="Segoe UI, Arial, sans-serif" fill="#475569">20,000</text>
<line x1="204.00" y1="123.88" x2="812.00" y2="123.88" stroke="#e2e8f0" stroke-width="1"/>
<text x="186.00" y="127.88" text-anchor="end" font-size="11" font-family="Segoe UI, Arial, sans-serif" fill="#475569">30,000</text>
<line x1="204.00" y1="113.50" x2="812.00" y2="113.50" stroke="#e2e8f0" stroke-width="1"/>
<text x="186.00" y="117.50" text-anchor="end" font-size="11" font-family="Segoe UI, Arial, sans-serif" fill="#475569">40,000</text>
<line x1="204.00" y1="103.13" x2="812.00" y2="103.13" stroke="#e2e8f0" stroke-width="1"/>
<text x="186.00" y="107.13" text-anchor="end" font-size="11" font-family="Segoe UI, Arial, sans-serif" fill="#475569">50,000</text>
<line x1="204.00" y1="92.75" x2="812.00" y2="92.75" stroke="#e2e8f0" stroke-width="1"/>
<text x="186.00" y="96.75" text-anchor="end" font-size="11" font-family="Segoe UI, Arial, sans-serif" fill="#475569">60,000</text>
<line x1="204.00" y1="82.38" x2="812.00" y2="82.38" stroke="#e2e8f0" stroke-width="1"/>
<text x="186.00" y="86.38" text-anchor="end" font-size="11" font-family="Segoe UI, Arial, sans-serif" fill="#475569">70,000</text>
<line x1="204.00" y1="72.00" x2="812.00" y2="72.00" stroke="#e2e8f0" stroke-width="1"/>
<text x="186.00" y="76.00" text-anchor="end" font-size="11" font-family="Segoe UI, Arial, sans-serif" fill="#475569">80,000</text>
<polyline points="229.06,82.12 745.26,115.77" fill="none" stroke="#2d7dd2" stroke-width="3" stroke-linecap="round" stroke-linejoin="round"/>
<circle cx="229.06" cy="82.12" r="5" fill="#2d7dd2" stroke="#ffffff" stroke-width="2"/>
<text x="229.06" y="98.12" text-anchor="middle" font-size="11" font-family="Segoe UI, Arial, sans-serif" fill="#1f2937">70,247 docs/s</text>
<text x="229.06" y="84.00" text-anchor="middle" font-size="11" font-family="Segoe UI, Arial, sans-serif" fill="#6b7280">Small knowledge base</text>
<circle cx="745.26" cy="115.77" r="5" fill="#2d7dd2" stroke="#ffffff" stroke-width="2"/>
<text x="745.26" y="105.77" text-anchor="middle" font-size="11" font-family="Segoe UI, Arial, sans-serif" fill="#1f2937">37,808 docs/s</text>
<text x="745.26" y="85.77" text-anchor="middle" font-size="11" font-family="Segoe UI, Arial, sans-serif" fill="#6b7280">Enterprise archive</text>
<rect x="204.00" y="187.00" width="608.00" height="83.00" fill="#ffffff" />
<text x="508.00" y="175.00" text-anchor="middle" font-size="12" font-weight="600" font-family="Segoe UI, Arial, sans-serif" fill="#1f2937">Queries per second (warm)</text>
<line x1="204.00" y1="187.00" x2="204.00" y2="270.00" stroke="#cbd5e1" stroke-width="1.5"/>
<line x1="204.00" y1="270.00" x2="812.00" y2="270.00" stroke="#e2e8f0" stroke-width="1"/>
<text x="186.00" y="274.00" text-anchor="end" font-size="11" font-family="Segoe UI, Arial, sans-serif" fill="#475569">0</text>
<line x1="204.00" y1="256.17" x2="812.00" y2="256.17" stroke="#e2e8f0" stroke-width="1"/>
<text x="186.00" y="260.17" text-anchor="end" font-size="11" font-family="Segoe UI, Arial, sans-serif" fill="#475569">200</text>
<line x1="204.00" y1="242.33" x2="812.00" y2="242.33" stroke="#e2e8f0" stroke-width="1"/>
<text x="186.00" y="246.33" text-anchor="end" font-size="11" font-family="Segoe UI, Arial, sans-serif" fill="#475569">400</text>
<line x1="204.00" y1="228.50" x2="812.00" y2="228.50" stroke="#e2e8f0" stroke-width="1"/>
<text x="186.00" y="232.50" text-anchor="end" font-size="11" font-family="Segoe UI, Arial, sans-serif" fill="#475569">600</text>
<line x1="204.00" y1="214.67" x2="812.00" y2="214.67" stroke="#e2e8f0" stroke-width="1"/>
<text x="186.00" y="218.67" text-anchor="end" font-size="11" font-family="Segoe UI, Arial, sans-serif" fill="#475569">800</text>
<line x1="204.00" y1="200.83" x2="812.00" y2="200.83" stroke="#e2e8f0" stroke-width="1"/>
<text x="186.00" y="204.83" text-anchor="end" font-size="11" font-family="Segoe UI, Arial, sans-serif" fill="#475569">1,000</text>
<line x1="204.00" y1="187.00" x2="812.00" y2="187.00" stroke="#e2e8f0" stroke-width="1"/>
<text x="186.00" y="191.00" text-anchor="end" font-size="11" font-family="Segoe UI, Arial, sans-serif" fill="#475569">1,200</text>
<polyline points="229.06,191.55 745.26,255.93" fill="none" stroke="#4cb944" stroke-width="3" stroke-linecap="round" stroke-linejoin="round"/>
<circle cx="229.06" cy="191.55" r="5" fill="#4cb944" stroke="#ffffff" stroke-width="2"/>
<text x="229.06" y="207.55" text-anchor="middle" font-size="11" font-family="Segoe UI, Arial, sans-serif" fill="#1f2937">1,134.2 queries/s</text>
<circle cx="745.26" cy="255.93" r="5" fill="#4cb944" stroke="#ffffff" stroke-width="2"/>
<text x="745.26" y="245.93" text-anchor="middle" font-size="11" font-family="Segoe UI, Arial, sans-serif" fill="#1f2937">203.4 queries/s</text>
<rect x="204.00" y="302.00" width="608.00" height="83.00" fill="#f8fafc" />
<text x="508.00" y="290.00" text-anchor="middle" font-size="12" font-weight="600" font-family="Segoe UI, Arial, sans-serif" fill="#1f2937">JSON batch read (ms, warm)</text>
<line x1="204.00" y1="302.00" x2="204.00" y2="385.00" stroke="#cbd5e1" stroke-width="1.5"/>
<line x1="204.00" y1="385.00" x2="812.00" y2="385.00" stroke="#e2e8f0" stroke-width="1"/>
<text x="186.00" y="389.00" text-anchor="end" font-size="11" font-family="Segoe UI, Arial, sans-serif" fill="#475569">0.0</text>
<line x1="204.00" y1="371.17" x2="812.00" y2="371.17" stroke="#e2e8f0" stroke-width="1"/>
<text x="186.00" y="375.17" text-anchor="end" font-size="11" font-family="Segoe UI, Arial, sans-serif" fill="#475569">5.0</text>
<line x1="204.00" y1="357.33" x2="812.00" y2="357.33" stroke="#e2e8f0" stroke-width="1"/>
<text x="186.00" y="361.33" text-anchor="end" font-size="11" font-family="Segoe UI, Arial, sans-serif" fill="#475569">10.0</text>
<line x1="204.00" y1="343.50" x2="812.00" y2="343.50" stroke="#e2e8f0" stroke-width="1"/>
<text x="186.00" y="347.50" text-anchor="end" font-size="11" font-family="Segoe UI, Arial, sans-serif" fill="#475569">15.0</text>
<line x1="204.00" y1="329.67" x2="812.00" y2="329.67" stroke="#e2e8f0" stroke-width="1"/>
<text x="186.00" y="333.67" text-anchor="end" font-size="11" font-family="Segoe UI, Arial, sans-serif" fill="#475569">20.0</text>
<line x1="204.00" y1="315.83" x2="812.00" y2="315.83" stroke="#e2e8f0" stroke-width="1"/>
<text x="186.00" y="319.83" text-anchor="end" font-size="11" font-family="Segoe UI, Arial, sans-serif" fill="#475569">25.0</text>
<line x1="204.00" y1="302.00" x2="812.00" y2="302.00" stroke="#e2e8f0" stroke-width="1"/>
<text x="186.00" y="306.00" text-anchor="end" font-size="11" font-family="Segoe UI, Arial, sans-serif" fill="#475569">30.0</text>
<polyline points="229.06,377.12 745.26,311.82" fill="none" stroke="#f38d2e" stroke-width="3" stroke-linecap="round" stroke-linejoin="round"/>
<circle cx="229.06" cy="377.12" r="5" fill="#f38d2e" stroke="#ffffff" stroke-width="2"/>
<text x="229.06" y="367.12" text-anchor="middle" font-size="11" font-family="Segoe UI, Arial, sans-serif" fill="#1f2937">2.85 ms</text>
<circle cx="745.26" cy="311.82" r="5" fill="#f38d2e" stroke="#ffffff" stroke-width="2"/>
<text x="745.26" y="327.82" text-anchor="middle" font-size="11" font-family="Segoe UI, Arial, sans-serif" fill="#1f2937">26.45 ms</text>
<rect x="204.00" y="417.00" width="608.00" height="83.00" fill="#ffffff" />
<text x="508.00" y="405.00" text-anchor="middle" font-size="12" font-weight="600" font-family="Segoe UI, Arial, sans-serif" fill="#1f2937">JSON bandwidth (MB/s, warm)</text>
<line x1="204.00" y1="417.00" x2="204.00" y2="500.00" stroke="#cbd5e1" stroke-width="1.5"/>
<line x1="204.00" y1="500.00" x2="812.00" y2="500.00" stroke="#e2e8f0" stroke-width="1"/>
<text x="186.00" y="504.00" text-anchor="end" font-size="11" font-family="Segoe UI, Arial, sans-serif" fill="#475569">0</text>
<line x1="204.00" y1="490.78" x2="812.00" y2="490.78" stroke="#e2e8f0" stroke-width="1"/>
<text x="186.00" y="494.78" text-anchor="end" font-size="11" font-family="Segoe UI, Arial, sans-serif" fill="#475569">20</text>
<line x1="204.00" y1="481.56" x2="812.00" y2="481.56" stroke="#e2e8f0" stroke-width="1"/>
<text x="186.00" y="485.56" text-anchor="end" font-size="11" font-family="Segoe UI, Arial, sans-serif" fill="#475569">40</text>
<line x1="204.00" y1="472.33" x2="812.00" y2="472.33" stroke="#e2e8f0" stroke-width="1"/>
<text x="186.00" y="476.33" text-anchor="end" font-size="11" font-family="Segoe UI, Arial, sans-serif" fill="#475569">60</text>
<line x1="204.00" y1="463.11" x2="812.00" y2="463.11" stroke="#e2e8f0" stroke-width="1"/>
<text x="186.00" y="467.11" text-anchor="end" font-size="11" font-family="Segoe UI, Arial, sans-serif" fill="#475569">80</text>
<line x1="204.00" y1="453.89" x2="812.00" y2="453.89" stroke="#e2e8f0" stroke-width="1"/>
<text x="186.00" y="457.89" text-anchor="end" font-size="11" font-family="Segoe UI, Arial, sans-serif" fill="#475569">100</text>
<line x1="204.00" y1="444.67" x2="812.00" y2="444.67" stroke="#e2e8f0" stroke-width="1"/>
<text x="186.00" y="448.67" text-anchor="end" font-size="11" font-family="Segoe UI, Arial, sans-serif" fill="#475569">120</text>
<line x1="204.00" y1="435.44" x2="812.00" y2="435.44" stroke="#e2e8f0" stroke-width="1"/>
<text x="186.00" y="439.44" text-anchor="end" font-size="11" font-family="Segoe UI, Arial, sans-serif" fill="#475569">140</text>
<line x1="204.00" y1="426.22" x2="812.00" y2="426.22" stroke="#e2e8f0" stroke-width="1"/>
<text x="186.00" y="430.22" text-anchor="end" font-size="11" font-family="Segoe UI, Arial, sans-serif" fill="#475569">160</text>
<line x1="204.00" y1="417.00" x2="812.00" y2="417.00" stroke="#e2e8f0" stroke-width="1"/>
<text x="186.00" y="421.00" text-anchor="end" font-size="11" font-family="Segoe UI, Arial, sans-serif" fill="#475569">180</text>
<polyline points="229.06,419.69 745.26,460.92" fill="none" stroke="#8750a1" stroke-width="3" stroke-linecap="round" stroke-linejoin="round"/>
<circle cx="229.06" cy="419.69" r="5" fill="#8750a1" stroke="#ffffff" stroke-width="2"/>
<text x="229.06" y="435.69" text-anchor="middle" font-size="11" font-family="Segoe UI, Arial, sans-serif" fill="#1f2937">174.2 MB/s</text>
<circle cx="745.26" cy="460.92" r="5" fill="#8750a1" stroke="#ffffff" stroke-width="2"/>
<text x="745.26" y="450.92" text-anchor="middle" font-size="11" font-family="Segoe UI, Arial, sans-serif" fill="#1f2937">84.8 MB/s</text>
<line x1="204.00" y1="500.00" x2="812.00" y2="500.00" stroke="#94a3b8" stroke-width="1.5"/>
<text x="204.00" y="520.00" text-anchor="middle" font-size="11" font-family="Segoe UI, Arial, sans-serif" fill="#475569">0</text>
<text x="271.56" y="520.00" text-anchor="middle" font-size="11" font-family="Segoe UI, Arial, sans-serif" fill="#475569">20</text>
<text x="339.11" y="520.00" text-anchor="middle" font-size="11" font-family="Segoe UI, Arial, sans-serif" fill="#475569">40</text>
<text x="406.67" y="520.00" text-anchor="middle" font-size="11" font-family="Segoe UI, Arial, sans-serif" fill="#475569">60</text>
<text x="474.22" y="520.00" text-anchor="middle" font-size="11" font-family="Segoe UI, Arial, sans-serif" fill="#475569">80</text>
<text x="541.78" y="520.00" text-anchor="middle" font-size="11" font-family="Segoe UI, Arial, sans-serif" fill="#475569">100</text>
<text x="609.33" y="520.00" text-anchor="middle" font-size="11" font-family="Segoe UI, Arial, sans-serif" fill="#475569">120</text>
<text x="676.89" y="520.00" text-anchor="middle" font-size="11" font-family="Segoe UI, Arial, sans-serif" fill="#475569">140</text>
<text x="744.44" y="520.00" text-anchor="middle" font-size="11" font-family="Segoe UI, Arial, sans-serif" fill="#475569">160</text>
<text x="812.00" y="520.00" text-anchor="middle" font-size="11" font-family="Segoe UI, Arial, sans-serif" fill="#475569">180</text>
<text x="229.06" y="544.00" text-anchor="middle" font-size="12" font-family="Segoe UI, Arial, sans-serif" fill="#1f2937">Small knowledge base</text>
<text x="229.06" y="560.00" text-anchor="middle" font-size="11" font-family="Segoe UI, Arial, sans-serif" fill="#64748b">7.42 MB</text>
<text x="745.26" y="544.00" text-anchor="middle" font-size="12" font-family="Segoe UI, Arial, sans-serif" fill="#1f2937">Enterprise archive</text>
<text x="745.26" y="560.00" text-anchor="middle" font-size="11" font-family="Segoe UI, Arial, sans-serif" fill="#64748b">160.24 MB</text>
<text x="508.00" y="580.00" text-anchor="middle" font-size="13" font-family="Segoe UI, Arial, sans-serif" fill="#1f2937">Archive size (MB)</text>
<text x="508.00" y="48.00" text-anchor="middle" font-size="18" font-family="Segoe UI, Arial, sans-serif" fill="#111827">Warm throughput metrics vs archive size</text>
</svg>
